# xmcd
# 
# Track frame offsets:
#     150
#     25202
#     49490
#     70755
#     83337
#     100012
#     112707
#     135777
#     152532
#     168492
#     180005
# 
# Disc length: 2820
# 
# Revision: 6
# Processed by: cddbd v1.5.2PL0 Copyright (c) Steve Scherf et al.
# Submitted via: fre:ac v1.0.17
# 
DISCID=6e0b020b
DTITLE=Johnny Winter - Second Winter
DYEAR=1969
DGENRE=Blues
TTITLE0=Memory Pain
TTITLE1=I'm Not Sure
TTITLE2=The Good Love
TTITLE3=Slippin' and Slidin'
TTITLE4=Miss Ann
TTITLE5=Johnny B. Goode
TTITLE6=Highway 61 Revisited
TTITLE7=I Love Everybody
TTITLE8=Hustled Down in Texas
TTITLE9=I Hate Everybody
TTITLE10=Fast Life Rider
EXTD=Johnny Winter: vocals, guitar, mandolin\nEdgar Winter: piano, organ, harpsichord, alto sax\nTommy Shannon (ex track 3), Dennis Collins (3): bass\n"Uncle" John Turner: percussion\nRecorded by Ed Kollis in Nashville US-TN, 1969.\nProduced by Johnny Win
EXTD=ter.\nOriginally released as Columbia 1½-LP CS-9947 (1969-10).\nCD: Columbia CK 9947 (1990-03-20), UPC 074640994722.\nAlso packaged in the "Johnny Winter/Second Winter/Captured Live!" 3-pak, Columbia C3K 65399 (1997-08-12), UPC 074646539927.
EXTT0=(Percy Mayfield)
EXTT1=(Johnny Winter)
EXTT2=(Dennis Collins)
EXTT3=(Eddie Bocage/Al Collins/Little Richard/James Smith)
EXTT4=(Enotris Johnson/Little Richard)
EXTT5=(Chuck Berry)
EXTT6=(Bob Dylan)
EXTT7=(Johnny Winter)
EXTT8=(Johnny Winter)
EXTT9=(Johnny Winter)
EXTT10=(Johnny Winter)
PLAYORDER=
